<mxfile host="app.diagrams.net" modified="2023-05-16T04:16:16.519Z" agent="Mozilla/5.0 (Windows NT 10.0; Win64; x64) AppleWebKit/537.36 (KHTML, like Gecko) Chrome/115.0.0.0 Safari/537.36 Edg/115.0.0.0" version="21.3.0" etag="l72etAyP9-H5KF0Prtzw" type="github">
  <diagram name="第 1 页" id="FpLluYpyxAPVs_5Y4_g5">
    <mxGraphModel>
      <root>
        <mxCell id="0" />
        <mxCell id="1" parent="0" />
      </root>
    </mxGraphModel>
  </diagram>
</mxfile>
